HIERARCHY
ROOT Hips
{
	OFFSET 0.00 0.00 0.00
	CHANNELS 6 Xposition Yposition Zposition Xrotation Yrotation Zrotation
	JOINT LeftUpLeg
	{
		OFFSET 3.64953 0.00000 0.00000
		CHANNELS 3 Xrotation Yrotation Zrotation
		JOINT LeftLeg
		{
			OFFSET 0.00000 -15.70580 0.00000
			CHANNELS 3 Xrotation Yrotation Zrotation
			JOINT LeftFoot
			{
				OFFSET 0.00000 -15.41867 0.00000
				CHANNELS 3 Xrotation Yrotation Zrotation
				JOINT LeftToeBase
				{
					OFFSET 0.00000 -1.53543 5.73033
					CHANNELS 3 Xrotation Yrotation Zrotation
					End Site
					{
						OFFSET 0.00000 0.00000 2.95275
					}
				}
			}
		}
	}
	JOINT RightUpLeg
	{
		OFFSET -3.64953 0.00000 0.00000
		CHANNELS 3 Xrotation Yrotation Zrotation
		JOINT RightLeg
		{
			OFFSET 0.00000 -15.70580 0.00000
			CHANNELS 3 Xrotation Yrotation Zrotation
			JOINT RightFoot
			{
				OFFSET 0.00000 -15.41867 0.00000
				CHANNELS 3 Xrotation Yrotation Zrotation
				JOINT RightToeBase
				{
					OFFSET 0.00000 -1.53543 5.73033
					CHANNELS 3 Xrotation Yrotation Zrotation
					End Site
					{
						OFFSET 0.00000 0.00000 2.95275
					}
				}
			}
		}
	}
	JOINT Spine
	{
		OFFSET 0.00000 0.03937 0.00000
		CHANNELS 3 Xrotation Yrotation Zrotation
		JOINT Spine1
		{
			OFFSET 0.00000 10.24829 0.00000
			CHANNELS 3 Xrotation Yrotation Zrotation
			JOINT Neck
			{
				OFFSET 0.00000 7.82687 0.00000
				CHANNELS 3 Xrotation Yrotation Zrotation
				JOINT Head
				{
					OFFSET 0.00000 6.90715 0.00000
					CHANNELS 3 Xrotation Yrotation Zrotation
					End Site
					{
						OFFSET 0.00000 4.52755 0.00000
					}
				}
			}
			JOINT LeftShoulder
			{
				OFFSET 0.00000 7.82687 0.00000
				CHANNELS 3 Xrotation Yrotation Zrotation
				JOINT LeftArm
				{
					OFFSET 6.71018 -0.00002 0.00000
					CHANNELS 3 Xrotation Yrotation Zrotation
					JOINT LeftForeArm
					{
						OFFSET 10.94419 -0.00004 0.00000
						CHANNELS 3 Xrotation Yrotation Zrotation
						JOINT LeftHand
						{
							OFFSET 8.52010 -0.00003 0.00000
							CHANNELS 3 Xrotation Yrotation Zrotation
							JOINT LeftHandThumb
							{
								OFFSET 0.00000 0.00000 0.00000
								CHANNELS 3 Xrotation Yrotation Zrotation
								End Site
								{
									OFFSET 0.00000 0.00000 3.93700
								}
							}
							JOINT L_Wrist_End
							{
								OFFSET 3.93700 -0.00001 0.00000
								CHANNELS 3 Xrotation Yrotation Zrotation
							}
						}
					}
				}
			}
			JOINT RightShoulder
			{
				OFFSET 0.00000 7.82687 0.00000
				CHANNELS 3 Xrotation Yrotation Zrotation
				JOINT RightArm
				{
					OFFSET -6.71018 -0.00002 0.00000
					CHANNELS 3 Xrotation Yrotation Zrotation
					JOINT RightForeArm
					{
						OFFSET -10.94419 -0.00004 0.00000
						CHANNELS 3 Xrotation Yrotation Zrotation
						JOINT RightHand
						{
							OFFSET -8.52010 -0.00003 0.00000
							CHANNELS 3 Xrotation Yrotation Zrotation
							JOINT RightHandThumb
							{
								OFFSET 0.00000 0.00000 0.00000
								CHANNELS 3 Xrotation Yrotation Zrotation
								End Site
								{
									OFFSET 0.00000 0.00000 3.93700
								}
							}
							JOINT R_Wrist_End
							{
								OFFSET -5.39369 -0.00002 0.00000
								CHANNELS 3 Xrotation Yrotation Zrotation
							}
						}
					}
				}
			}
		}
	}
}
MOTION
Frames: 9
Frame Time: 0.008333
 1.3073 32.7337 15.3226 11.8045 -1.2725 -0.4932 -9.9536 -2.7186 5.7024 10.1724 -0.0000 0.0000 -14.5808 -3.4115 -9.4890 -5.9717 -0.0000 -0.0000 -8.5692 -8.0084 -4.1003 6.2972 0.0000 0.0000 -20.8488 2.6672 -1.9017 10.1400 -0.0000 0.0000 -1.6970 2.4004 -0.2801 12.5816 0.0420 0.6543 5.0306 1.4126 -4.6719 6.1069 -4.6612 6.8547 20.2744 14.4579 -1.7604 -4.8509 -34.1052 -69.7684 -0.0001 -16.4106 -0.0000 -17.4486 -3.6682 -10.0541 -0.0000 -0.0000 0.0000 -0.0000 -0.0000 0.0000 16.2232 -20.8385 1.0896 9.0633 35.3261 69.7244 -0.0001 16.4815 0.0000 -31.9105 -1.7247 9.9724 -0.0000 -0.0000 0.0000 -0.0000 -0.0000 0.0000
 1.2882 32.7347 15.3173 11.8184 -1.1604 -0.5214 -9.9649 -2.8916 5.7313 10.1428 -0.0000 0.0000 -14.5528 -3.2831 -9.5299 -5.8305 0.0000 -0.0000 -8.7236 -7.8214 -4.0559 6.6494 0.0000 0.0000 -21.0162 2.4004 -1.9215 10.2253 -0.0000 -0.0000 -1.5962 2.4058 -0.2613 12.7317 0.0648 0.7091 4.9067 1.3787 -4.6884 5.9067 -4.7057 6.9193 20.3396 14.4860 -1.6874 -4.8374 -33.9629 -69.8528 -0.0001 -16.2415 -0.0000 -17.8059 -3.5803 -9.9090 0.0000 -0.0000 0.0000 0.0000 -0.0000 0.0000 16.3858 -20.8437 1.1004 9.0215 35.1856 69.7749 -0.0001 16.2880 0.0000 -30.8024 -2.4773 9.4948 0.0000 0.0000 -0.0000 0.0000 0.0000 -0.0000
 1.2670 32.7344 15.3072 11.8609 -1.0238 -0.5602 -9.9941 -2.9699 5.7838 10.0556 -0.0000 0.0000 -14.5205 -3.2791 -9.5281 -5.8708 -0.0000 -0.0000 -8.9093 -7.7531 -3.9994 6.9848 -0.0000 -0.0000 -21.1727 2.2664 -2.1772 10.0986 -0.0000 0.0000 -1.4754 2.4056 -0.2591 12.8373 0.0888 0.7859 4.7388 1.3459 -4.5921 5.7776 -4.7368 6.8253 20.2435 14.5304 -1.5090 -4.7736 -33.8253 -70.0684 -0.0001 -16.0242 -0.0000 -17.8645 -3.4125 -9.8612 0.0000 -0.0000 -0.0000 0.0000 -0.0000 -0.0000 16.3617 -20.8562 1.0383 9.2900 35.2965 69.7828 -0.0001 16.1764 0.0000 -30.6260 -2.6513 9.4483 -0.0000 -0.0000 0.0000 -0.0000 -0.0000 0.0000
 1.2428 32.7338 15.2823 11.9785 -0.9623 -0.6135 -10.0625 -2.8330 5.8778 9.8387 -0.0000 0.0000 -14.4766 -3.4107 -9.5479 -5.8264 0.0000 0.0000 -9.2354 -7.6121 -3.9119 7.3822 -0.0000 0.0000 -21.2937 2.0988 -2.4279 9.9899 0.0000 0.0000 -1.3431 2.4072 -0.2726 12.8768 0.1291 0.9055 4.6305 1.2550 -4.5214 5.5113 -4.7276 6.6886 20.0892 14.5316 -1.3854 -4.4198 -33.7059 -70.1627 -0.0001 -16.1132 -0.0000 -18.0564 -3.3120 -9.6568 0.0000 -0.0000 0.0000 0.0000 -0.0000 0.0000 16.2943 -20.8210 0.9462 9.5216 35.3552 69.7983 -0.0001 16.0880 0.0000 -30.2745 -2.8860 9.5316 0.0000 0.0000 0.0000 0.0000 0.0000 0.0000
 1.2143 32.7322 15.2704 12.0305 -0.8658 -0.6090 -9.9385 -2.6828 5.9316 9.3855 -0.0000 0.0000 -14.3068 -3.6153 -9.6225 -5.8239 0.0000 -0.0000 -9.4532 -7.5069 -3.8882 7.7456 -0.0000 0.0000 -21.5023 1.9393 -2.6348 9.9657 0.0000 0.0000 -1.2353 2.4062 -0.2849 13.0416 0.1368 0.9285 4.5545 1.2128 -4.5406 5.1893 -4.7445 6.8052 20.1404 14.4984 -1.3275 -4.2895 -33.7831 -70.1464 -0.0001 -16.0045 -0.0000 -17.9324 -3.2427 -9.7489 0.0000 0.0000 -0.0000 0.0000 0.0000 -0.0000 16.3788 -20.7742 0.9635 9.5542 35.4119 69.8653 -0.0001 16.0177 0.0000 -30.1009 -2.8813 9.4491 -0.0000 0.0000 -0.0000 -0.0000 0.0000 -0.0000
 1.1832 32.7305 15.2215 12.3322 -0.9660 -0.5464 -10.1340 -2.2077 5.9811 8.9534 -0.0000 -0.0000 -14.1294 -3.9628 -9.8432 -5.8091 0.0000 0.0000 -10.1781 -7.1723 -3.9035 8.4418 0.0000 0.0000 -21.7488 1.7560 -2.7780 9.8358 -0.0000 0.0000 -1.1380 2.4841 -0.4330 12.9627 0.2575 1.0385 4.4306 1.0703 -4.4749 4.9597 -4.6693 6.7256 19.9137 14.5734 -1.1584 -4.0520 -33.8435 -70.3477 -0.0001 -15.8313 -0.0000 -17.5751 -3.3413 -9.9691 -0.0000 0.0000 -0.0000 -0.0000 0.0000 -0.0000 16.4305 -20.6862 0.9359 9.6968 35.4861 69.8590 -0.0001 16.0970 0.0000 -30.1352 -3.0861 9.2219 -0.0000 -0.0000 0.0000 -0.0000 -0.0000 0.0000
 1.1553 32.7274 15.2000 12.3841 -0.8405 -0.5314 -9.9785 -1.9963 6.0257 8.3715 -0.0000 0.0000 -13.9127 -4.2541 -9.9936 -5.8268 0.0000 -0.0000 -10.5366 -7.4062 -3.9290 8.9974 -0.0000 0.0000 -22.0233 1.9068 -2.9449 9.9408 -0.0000 0.0000 -1.0098 2.4573 -0.4339 13.2095 0.2387 1.0584 4.3130 1.0370 -4.4827 4.6110 -4.7070 6.7118 20.0434 14.4920 -1.1494 -4.0051 -33.9311 -70.3166 -0.0001 -15.8749 -0.0000 -17.3891 -3.2719 -10.0531 -0.0000 -0.0000 0.0000 -0.0000 -0.0000 0.0000 16.4809 -20.6518 0.9473 9.5895 35.5080 69.9764 -0.0001 16.1115 0.0000 -29.9059 -3.0878 9.2667 -0.0000 0.0000 -0.0000 -0.0000 0.0000 -0.0000
 1.1395 32.7268 15.1287 12.9018 -1.0048 -0.3130 -10.4292 -1.4092 5.9037 7.9339 -0.0000 0.0000 -13.6344 -4.6223 -9.9413 -5.9418 -0.0000 0.0000 -11.7073 -7.0736 -4.1286 9.9813 -0.0000 0.0000 -22.3458 1.8569 -3.1832 9.7222 0.0000 -0.0000 -0.9672 2.5413 -0.6119 13.0447 0.3334 1.0495 4.1041 0.9264 -4.5384 4.4718 -4.5899 6.7128 19.9756 14.6409 -1.1607 -3.8010 -34.1679 -70.3131 -0.0001 -15.8707 -0.0000 -16.9747 -3.1600 -10.3529 -0.0000 0.0000 -0.0000 -0.0000 0.0000 -0.0000 16.5368 -20.6881 0.8845 9.5413 35.8533 70.0443 -0.0001 16.0989 0.0000 -30.0017 -2.9997 9.1953 -0.0000 0.0000 0.0000 -0.0000 0.0000 0.0000
 1.1140 32.7187 15.1052 12.9406 -0.8555 -0.2991 -10.3171 -1.1382 5.9516 7.4522 -0.0000 0.0000 -13.5686 -5.0013 -10.3172 -5.7675 0.0000 0.0000 -12.1261 -7.2358 -4.1553 10.6774 -0.0000 0.0000 -22.6618 1.8476 -3.1811 9.8954 0.0000 0.0000 -0.8112 2.5036 -0.6099 13.3425 0.3036 1.0654 3.9734 0.8924 -4.5280 4.0664 -4.6257 6.6567 20.0815 14.5292 -1.1354 -3.7949 -34.2550 -70.3572 -0.0001 -15.9184 -0.0000 -17.1610 -3.3648 -10.3671 -0.0000 -0.0000 0.0000 -0.0000 -0.0000 0.0000 16.5291 -20.6514 0.8992 9.4183 35.8629 70.1895 -0.0001 16.2070 0.0000 -29.7417 -3.0499 9.2977 -0.0000 -0.0000 -0.0000 -0.0000 -0.0000 -0.0000
